<svg xmlns="http://www.w3.org/2000/svg" width="22.653" height="15.847" viewBox="0 0 22.653 15.847">
  <g id="组_645" data-name="组 645" transform="translate(106.12 -138.167)">
    <path id="路径_134" data-name="路径 134" d="M-32.464,232.263l-5.031-5.047H-41.46l-2.885-2.885-3.965,3.967,1.8,1.8a3.023,3.023,0,0,0,.954,1.344l4.885,4.944.611.611c.932.932,1.8.246,2.249-.527a1.632,1.632,0,0,0,2.146-.709,1.379,1.379,0,0,0,1.947-1.136,1.5,1.5,0,0,0,1.253-2.364Zm0,0" transform="translate(-56.217 -83.791)" fill="#fff"/>
    <path id="路径_135" data-name="路径 135" d="M-57.155,219.83a1.659,1.659,0,0,1-1.183-.555l-.611-.611-4.866-4.931a3.424,3.424,0,0,1-1.04-1.432l-1.995-1.975,4.476-4.476,3.033,3.033h3.967l5.163,5.193a1.724,1.724,0,0,1,.221,1.8,2.022,2.022,0,0,1-1.416,1.094,1.809,1.809,0,0,1-.706.988,1.645,1.645,0,0,1-1.432.272,2.092,2.092,0,0,1-1.007.7,1.894,1.894,0,0,1-1.144.011,2.016,2.016,0,0,1-1.288.884,1.342,1.342,0,0,1-.173,0Zm-8.675-9.5,1.614,1.613.026.089a2.674,2.674,0,0,0,.814,1.15l.049.041,4.885,4.943.609.609a.922.922,0,0,0,.752.339,1.456,1.456,0,0,0,.931-.8l.172-.3.305.159a1.158,1.158,0,0,0,.9.068,1.33,1.33,0,0,0,.76-.622l.159-.318.318.159a.923.923,0,0,0,.993-.092.964.964,0,0,0,.437-.671l-.052-.386.39-.022a1.314,1.314,0,0,0,1.113-.722,1,1,0,0,0-.13-1.045l-4.886-4.921h-3.965l-2.736-2.734Zm0,0" transform="translate(-38.188 -65.819)" fill="#2a5082"/>
    <path id="路径_136" data-name="路径 136" d="M174.525,237.44a10.522,10.522,0,0,1-1.8,1.443,16.739,16.739,0,0,1-2.785-.954c-.4-.1-4.334,1.158-4.627,1.632s.87,1.591,1.991,1.452,2.783-.738,3.269-.253c.786.786,3.079,3.191,4.163,4.148.908.8,2.457-1.949,2.849-2.386,0,0,.72-.523,1.228-.9Zm0,0" transform="translate(-263.91 -96.539)" fill="#e9eaeb"/>
    <path id="路径_137" data-name="路径 137" d="M162.328,227.61a.906.906,0,0,1-.609-.235c-.81-.714-2.249-2.19-3.3-3.267-.364-.374-.673-.69-.88-.9s-1.249.017-1.872.151c-.372.08-.757.159-1.1.205a2.512,2.512,0,0,1-2.251-1.066.832.832,0,0,1-.092-.934c.068-.11.274-.444,2.467-1.18a9.381,9.381,0,0,1,2.553-.608,8.643,8.643,0,0,1,.856.318,10.535,10.535,0,0,0,1.778.619,11.673,11.673,0,0,0,1.619-1.347l.251-.239,4.837,4.735-.344.251c-.442.318-1.048.763-1.2.872-.068.083-.185.25-.307.426-.733,1.055-1.516,2.092-2.3,2.187a.969.969,0,0,1-.114.006Zm-5.185-5.2a1.239,1.239,0,0,1,.907.291c.215.213.519.526.886.9,1.043,1.069,2.472,2.534,3.261,3.23a.188.188,0,0,0,.159.054c.53-.064,1.416-1.338,1.794-1.882a6.187,6.187,0,0,1,.387-.525l.056-.049.884-.636-3.735-3.658a5.426,5.426,0,0,1-1.75,1.3,5.706,5.706,0,0,1-2.17-.663c-.3-.124-.617-.251-.74-.286a17.046,17.046,0,0,0-4.24,1.459.851.851,0,0,0,.262.39,1.8,1.8,0,0,0,1.368.519c.309-.04.662-.115,1.035-.2a8.433,8.433,0,0,1,1.635-.248ZM155.183,230l.509-.509,1.675,1.675-.51.51Zm1.373-1.483.51-.51,2.447,2.447-.509.509Zm1.521-1.561.51-.509,2.873,2.873-.509.509Zm0,0" transform="translate(-251.134 -78.735)" fill="#2a5082"/>
    <path id="路径_138" data-name="路径 138" d="M449.126,186.872l1.8-1.8,5.048,5.048-1.8,1.8Zm0,0" transform="translate(-539.953 -45.61)" fill="#a3d4ff"/>
    <path id="路径_139" data-name="路径 139" d="M436.174,174.451l-5.556-5.557,2.313-2.313,5.558,5.557Zm-4.536-5.557,4.538,4.538,1.293-1.293-4.539-4.538Zm0,0" transform="translate(-521.955 -27.631)" fill="#2a5082"/>
    <path id="路径_140" data-name="路径 140" d="M505.271,241.836l.51-.509.721.721-.51.51Zm0,0" transform="translate(-594.552 -100.319)" fill="#2a5082"/>
    <path id="路径_141" data-name="路径 141" d="M-87.6,190.129l5.048-5.048,1.8,1.8-5.048,5.048Zm0,0" transform="translate(-18.006 -45.622)" fill="#a3d4ff"/>
    <path id="路径_142" data-name="路径 142" d="M-103.807,174.451l-2.313-2.313,5.557-5.557,2.313,2.313Zm-1.293-2.313,1.293,1.293,4.538-4.538-1.293-1.293Zm0,0" transform="translate(0 -27.631)" fill="#2a5082"/>
    <path id="路径_143" data-name="路径 143" d="M60.243,242.04l.721-.721.51.51-.721.721Zm0,0" transform="translate(-161.781 -100.311)" fill="#2a5082"/>
    <path id="路径_144" data-name="路径 144" d="M19.372,138.167" transform="translate(-122.036)" fill="#bcc0c4"/>
    <path id="路径_145" data-name="路径 145" d="M3.57,453.131a.721.721,0,0,0,1.019,0l.765-.765a.807.807,0,0,0-.127-1.147.807.807,0,0,0-1.147-.127.807.807,0,0,0-.127-1.147.807.807,0,0,0-1.147-.127.807.807,0,0,0-.127-1.147.807.807,0,0,0-1.147-.127.807.807,0,0,0-.127-1.147.807.807,0,0,0-1.147-.127l-.765.765a.72.72,0,0,0-.211.51.72.72,0,0,0,.211.51Zm0,0" transform="translate(-102.499 -300.407)" fill="#e9eaeb"/>
    <path id="路径_146" data-name="路径 146" d="M-8.726,202.671a1.074,1.074,0,0,1-.765-.318l-4.08-4.078a1.083,1.083,0,0,1,0-1.53l.765-.765a1.156,1.156,0,0,1,1.657.127,1.374,1.374,0,0,1,.418.856,1.465,1.465,0,0,1,1.273,1.272,1.465,1.465,0,0,1,1.272,1.273h.054a1.4,1.4,0,0,1,.8.412,1.156,1.156,0,0,1,.127,1.657l-.765.765a1.075,1.075,0,0,1-.752.329Zm-3.364-6.262a.281.281,0,0,0-.205.081l-.765.765a.361.361,0,0,0,0,.511l4.08,4.078a.369.369,0,0,0,.511,0l.765-.765c.159-.159.057-.452-.127-.636a.688.688,0,0,0-.382-.207.291.291,0,0,0-.254.078l-.511-.511c.159-.159.059-.452-.127-.636s-.477-.293-.636-.127l-.511-.51c.159-.159.057-.452-.127-.636s-.477-.293-.636-.127l-.511-.511a.291.291,0,0,0,.078-.254.689.689,0,0,0-.205-.382.661.661,0,0,0-.436-.21Zm8.9-7.469" transform="translate(-89.692 -49.375)" fill="#2a5082"/>
  </g>
</svg>
